<svg width="154" height="70" viewBox="0 0 154 70" fill="none" xmlns="http://www.w3.org/2000/svg">
<path d="M111.933 23.9768C117.437 23.9768 122.481 24.0121 127.525 23.965C131.638 23.9297 136.907 24.4707 137.001 18.7909C137.107 12.5583 131.532 13.3815 127.29 13.3227C121.067 13.2404 114.844 13.2992 108.032 13.2992C108.032 25.9877 108.032 38.0411 108.032 50.5414C102.67 50.5414 97.9087 50.5414 92.6406 50.5414C92.6406 34.2663 92.6406 17.9677 92.6406 0.822388C97.0837 0.822388 101.515 0.810628 105.946 0.822388C116.53 0.869426 127.136 0.587198 137.708 1.10462C147.973 1.59851 151.933 6.65509 151.65 17.4385C151.344 29.1862 147.054 34.1252 137.072 34.9249C127.078 35.7127 117.92 34.8308 111.933 23.9768Z" fill="url(#paint0_linear_4499_741)"/>
<path d="M1.6026 60.1369V58.726H9.29082V60.1369H6.3582V69.7432H4.55107V60.1369H1.6026ZM18.1117 58.726H19.9188V69.7432H18.1117V64.8766H12.9281V69.7432H11.121V58.726H12.9281V63.4816H18.1117V58.726ZM28.385 58.7102V60.121H24.105V63.4658H27.9095V64.8608H24.105V68.3323H28.385V69.7432H22.2979V58.7102H28.385ZM35.3634 69.7432V58.726H41.8468V60.1369H37.1705V63.4816H40.8165V64.8766H37.1705V69.7432H35.3634ZM43.5216 69.7432V58.726H45.3287V69.7432H43.5216ZM54.9457 58.7102H56.7528V69.7432H54.9457L49.5084 61.516V69.7432H47.7013V58.7102H49.5084L54.9457 66.9215V58.7102ZM64.151 68.2214C65.2606 68.2214 66.1642 67.8568 66.8617 67.1276C67.5697 66.3878 67.9237 65.4209 67.9237 64.2267C67.9237 63.0219 67.5697 62.0549 66.8617 61.3258C66.1642 60.5966 65.2606 60.232 64.151 60.232C63.0413 60.232 62.1325 60.5966 61.4244 61.3258C60.7269 62.0549 60.3782 63.0219 60.3782 64.2267C60.3782 65.4209 60.7269 66.3878 61.4244 67.1276C62.1325 67.8568 63.0413 68.2214 64.151 68.2214ZM64.151 69.8541C62.5763 69.8541 61.2448 69.3257 60.1563 68.2689C59.0678 67.2016 58.5235 65.8541 58.5235 64.2267C58.5235 62.5886 59.0678 61.2412 60.1563 60.1844C61.2448 59.117 62.5763 58.5834 64.151 58.5834C65.7362 58.5834 67.0677 59.117 68.1457 60.1844C69.2342 61.2412 69.7784 62.5886 69.7784 64.2267C69.7784 65.8541 69.2342 67.2016 68.1457 68.2689C67.0677 69.3257 65.7362 69.8541 64.151 69.8541ZM80.1137 58.726C81.3607 58.726 82.3224 59.0378 82.9987 59.6613C83.6751 60.2742 84.0133 61.0457 84.0133 61.9757C84.0133 62.8951 83.6909 63.6771 83.0463 64.3218C82.4122 64.9559 81.4347 65.2729 80.1137 65.2729H78.1163V69.7432H76.3092V58.726H80.1137ZM78.1163 63.8621H80.1137C80.8006 63.8621 81.3131 63.6983 81.6513 63.3707C81.9895 63.0431 82.1586 62.5886 82.1586 62.0074C82.1586 61.4156 81.9895 60.9559 81.6513 60.6283C81.3131 60.3007 80.8006 60.1369 80.1137 60.1369H78.1163V63.8621ZM93.1714 69.7432L92.3788 67.4922H87.7658L86.9732 69.7432H85.0869L89.034 58.7102H91.1265L95.0736 69.7432H93.1714ZM88.2573 66.0814H91.8874L90.0802 60.8978L88.2573 66.0814ZM98.597 65.2729V69.7432H96.7898V58.726H100.594C101.841 58.726 102.803 59.0378 103.479 59.6613C104.156 60.2742 104.494 61.0563 104.494 62.0074C104.494 62.7472 104.267 63.4129 103.812 64.0047C103.368 64.5966 102.681 64.9823 101.752 65.1619L104.668 69.7432H102.465L99.7066 65.2729H98.597ZM98.597 60.1369V63.8621H100.594C101.281 63.8621 101.794 63.6983 102.132 63.3707C102.47 63.0431 102.639 62.5886 102.639 62.0074C102.639 61.4156 102.47 60.9559 102.132 60.6283C101.794 60.3007 101.281 60.1369 100.594 60.1369H98.597ZM106.235 60.1369V58.726H113.923V60.1369H110.991V69.7432H109.183V60.1369H106.235ZM122.998 58.7102H124.805V69.7432H122.998L117.561 61.516V69.7432H115.753V58.7102H117.561L122.998 66.9215V58.7102ZM133.265 58.7102V60.121H128.985V63.4658H132.79V64.8608H128.985V68.3323H133.265V69.7432H127.178V58.7102H133.265ZM137.298 65.2729V69.7432H135.491V58.726H139.295C140.542 58.726 141.504 59.0378 142.181 59.6613C142.857 60.2742 143.195 61.0563 143.195 62.0074C143.195 62.7472 142.968 63.4129 142.513 64.0047C142.07 64.5966 141.383 64.9823 140.453 65.1619L143.369 69.7432H141.166L138.408 65.2729H137.298ZM137.298 60.1369V63.8621H139.295C139.982 63.8621 140.495 63.6983 140.833 63.3707C141.171 63.0431 141.34 62.5886 141.34 62.0074C141.34 61.4156 141.171 60.9559 140.833 60.6283C140.495 60.3007 139.982 60.1369 139.295 60.1369H137.298ZM148.931 60.0576C148.392 60.0576 147.953 60.195 147.615 60.4697C147.277 60.7445 147.108 61.1461 147.108 61.6745C147.108 62.1923 147.309 62.5886 147.71 62.8634C148.112 63.1382 148.598 63.339 149.169 63.4658C149.739 63.5926 150.31 63.7405 150.881 63.9096C151.451 64.0682 151.937 64.3693 152.339 64.8132C152.741 65.2571 152.941 65.8858 152.941 66.6996C152.941 67.5133 152.598 68.2425 151.911 68.8872C151.224 69.5318 150.305 69.8541 149.153 69.8541C148.001 69.8541 147.066 69.5846 146.347 69.0457C145.628 68.5067 145.269 67.7617 145.269 66.8105H147.203C147.245 67.2967 147.425 67.6824 147.742 67.9677C148.059 68.2531 148.524 68.3957 149.137 68.3957C149.75 68.3957 150.231 68.2372 150.579 67.9202C150.939 67.6031 151.118 67.228 151.118 66.7947C151.118 66.3614 151.007 66.0232 150.786 65.7802C150.574 65.5371 150.294 65.3574 149.945 65.2412C149.607 65.1144 149.232 65.0034 148.82 64.9083C148.408 64.8132 147.99 64.7022 147.568 64.5754C147.155 64.4486 146.775 64.2848 146.426 64.084C146.088 63.8832 145.808 63.5926 145.586 63.2121C145.375 62.8211 145.269 62.3456 145.269 61.7855C145.269 60.8238 145.613 60.0523 146.299 59.4711C146.997 58.8793 147.895 58.5834 148.994 58.5834C150.104 58.5834 150.986 58.837 151.642 59.3443C152.307 59.8515 152.677 60.586 152.751 61.5477H150.754C150.712 61.125 150.532 60.7709 150.215 60.4856C149.898 60.2003 149.47 60.0576 148.931 60.0576Z" fill="black"/>
<path fill-rule="evenodd" clip-rule="evenodd" d="M12.58 0.825565C6.52135 1.71373 2.94857 8.88408 2.09375 12.1082H22.9042V50.5412H37.8998V12.0269H37.8989V0.789062H12.817C12.7416 0.801283 12.6627 0.813452 12.58 0.825565Z" fill="url(#paint1_linear_4499_741)"/>
<path fill-rule="evenodd" clip-rule="evenodd" d="M42.4062 0.781738L88.1254 0.785865V11.8515L42.4062 11.8474V0.781738ZM42.4062 16.1033H57.4764V20.7603H88.1229V20.8668C86.5219 24.6159 83.238 29.8772 76.6586 31.8252H57.4764V50.5163H42.4062V16.1033Z" fill="url(#paint2_linear_4499_741)"/>
<defs>
<linearGradient id="paint0_linear_4499_741" x1="131.075" y1="78.0264" x2="146.455" y2="-18.0178" gradientUnits="userSpaceOnUse">
<stop offset="0.12" stop-color="#021762"/>
<stop offset="0.85" stop-color="#1752CA"/>
<stop offset="0.8501" stop-color="#0944BD"/>
</linearGradient>
<linearGradient id="paint1_linear_4499_741" x1="25.4095" y1="78.0249" x2="49.7167" y2="-14.0617" gradientUnits="userSpaceOnUse">
<stop offset="0.12" stop-color="#021762"/>
<stop offset="0.85" stop-color="#1752CA"/>
<stop offset="0.8501" stop-color="#0944BD"/>
</linearGradient>
<linearGradient id="paint2_linear_4499_741" x1="72.1771" y1="77.9903" x2="91.6925" y2="-16.4447" gradientUnits="userSpaceOnUse">
<stop offset="0.12" stop-color="#021762"/>
<stop offset="0.85" stop-color="#1752CA"/>
<stop offset="0.8501" stop-color="#0944BD"/>
</linearGradient>
</defs>
</svg>
